<?xml version="1.0" encoding="UTF-8" standalone="no"?>
<svg
   xmlns:dc="http://purl.org/dc/elements/1.1/"
   xmlns:cc="http://creativecommons.org/ns#"
   xmlns:rdf="http://www.w3.org/1999/02/22-rdf-syntax-ns#"
   xmlns:svg="http://www.w3.org/2000/svg"
   xmlns="http://www.w3.org/2000/svg"
   xmlns:sodipodi="http://sodipodi.sourceforge.net/DTD/sodipodi-0.dtd"
   xmlns:inkscape="http://www.inkscape.org/namespaces/inkscape"
   width="2040.3594"
   height="2060.4712"
   viewBox="0 0 255.41907 257.97099"
   preserveAspectRatio="xMinYMin meet"
   version="1.1"
   id="svg3824"
   sodipodi:docname="vagrant.svg"
   inkscape:version="0.92.2 (5c3e80d, 2017-08-06)">
  <metadata
     id="metadata3830">
    <rdf:RDF>
      <cc:Work
         rdf:about="">
        <dc:format>image/svg+xml</dc:format>
        <dc:type
           rdf:resource="http://purl.org/dc/dcmitype/StillImage" />
        <dc:title></dc:title>
      </cc:Work>
    </rdf:RDF>
  </metadata>
  <defs
     id="defs3828" />
  <sodipodi:namedview
     pagecolor="#ffffff"
     bordercolor="#666666"
     borderopacity="1"
     objecttolerance="10"
     gridtolerance="10"
     guidetolerance="10"
     inkscape:pageopacity="0"
     inkscape:pageshadow="2"
     inkscape:window-width="1858"
     inkscape:window-height="1057"
     id="namedview3826"
     showgrid="false"
     inkscape:zoom="0.26700352"
     inkscape:cx="1324.3251"
     inkscape:cy="949.95726"
     inkscape:window-x="54"
     inkscape:window-y="54"
     inkscape:window-maximized="1"
     inkscape:current-layer="svg3824" />
  <path
     d="m 255.28,18.501 c -1.842,-1.51 -16.319,-9.274 -16.319,-9.274 l -15.447,8.975 -0.009,-0.005 15.448,-8.974 -15.443,-9.203 -0.005,18.177 -16.11,-9.018 c 0,0 -13.18,7.704 -19.578,11.397 -8.055,4.647 -27.81,16.41 -27.81,16.41 v 17.369 l -16.274,42.4 v 23.023 l -11.422,6.666 -4.545,11.89 L 95.74,55.248 95.745,37.027 31.914,0 0.032,18.455 0,18.449 v 18.776 l 19.884,47.891 12.083,7.117 0.01,21.84 47.901,116.344 47.872,27.396 v 0.158 L 175.56,230.305 255.453,36.843 255.28,18.501"
     id="path3778"
     inkscape:connector-curvature="0"
     style="fill:#3185b8" />
  <path
     d="M 127.786,257.833 79.878,230.417 31.978,114.073 31.967,92.233 19.884,85.116 0,37.226 V 18.448 l 15.733,9.173 v 18.484 l 16.262,9.437 0.002,-18.592 31.772,18.383 1.531,18.199 46.19,119.892 32.098,18.698 v 36.668 l -15.847,-9.322 0.045,18.365"
     id="path3780"
     inkscape:connector-curvature="0"
     style="fill:#3185b8" />
  <path
     d="M 95.739,55.249 127.766,138.333 127.7,184.1 111.467,193.333 65.3,73.399 63.77,55.334 95.745,37.028 95.74,55.248 M 15.733,27.622 V 46.105 L 31.997,36.95 15.733,27.62"
     id="path3782"
     inkscape:connector-curvature="0"
     style="fill:#61a5ce" />
  <path
     d="m 31.995,55.543 0.002,-18.592 -16.264,9.155 16.262,9.437"
     id="path3784"
     inkscape:connector-curvature="0"
     style="fill:#eae9e6" />
  <path
     d="m 127.7,184.1 16.01,9.161 17.827,-44.757 13.728,8.169 v -42.895 l 4.38,-10.357 11.688,6.845 V 92.133 l -15.911,-9.245 16,-9.288 -15.733,-9.067 -0.042,-18.43 -15.64,-9.118 v 17.37 l -16.274,42.4 v 23.023 l -11.422,6.666 -4.545,11.89 -0.066,45.766"
     id="path3786"
     inkscape:connector-curvature="0"
     style="fill:#3185b8" />
  <path
     d="m 127.48,202.835 16.108,9.287 -0.08,36.676 32.051,-18.493 79.894,-193.462 -0.173,-18.342 -47.886,27.602 v 36.825 l -16.06,9.205 v 18.133 l -11.69,-6.845 -4.379,10.357 v 42.805 l -22.244,13.08 -9.31,23.598 -16.23,9.575"
     id="path3788"
     inkscape:connector-curvature="0"
     style="fill:#61a5ce" />
  <path
     d="M 63.667,73.733 79.733,64.4 V 82.865 L 63.667,73.732"
     id="path3790"
     inkscape:connector-curvature="0"
     style="fill:#eae9e6" />
  <path
     d="m 79.733,82.865 15.933,9.001 V 73.733 L 79.733,64.4 v 18.465"
     id="path3792"
     inkscape:connector-curvature="0"
     style="fill:#3185b8" />
  <path
     d="m 47.845,119.531 v 18.6 l 16.087,-9.257 -16.087,-9.343"
     id="path3794"
     inkscape:connector-curvature="0"
     style="fill:#61a5ce" />
  <path
     d="m 79.988,138.217 -16.143,9.4 -16,-9.486 16.087,-9.257 16.056,9.343"
     id="path3796"
     inkscape:connector-curvature="0"
     style="fill:#eae9e6" />
  <path
     d="m 79.77,193.468 v 18.758 l 16.17,-9.35 -16.17,-9.408"
     id="path3798"
     inkscape:connector-curvature="0"
     style="fill:#61a5ce" />
  <path
     d="m 111.522,230.218 16.287,9.467 0.059,-19.052 -16.346,9.585"
     id="path3800"
     inkscape:connector-curvature="0"
     style="fill:#eae9e6" />
  <path
     d="m 127.75,257.971 0.06,-18.286 15.698,9.113 -15.758,9.173"
     id="path3802"
     inkscape:connector-curvature="0"
     style="fill:#61a5ce" />
  <path
     d="m 127.7,184.1 -16.233,9.233 16.014,9.503 16.23,-9.575 -16.01,-9.161"
     id="path3804"
     inkscape:connector-curvature="0"
     style="fill:#eae9e6" />
  <path
     d="M 207.394,82.928 V 46.103 L 191.54,37.078 v 18.347 l -15.851,9.108 31.705,18.395"
     id="path3806"
     inkscape:connector-curvature="0"
     style="fill:#3185b8" />
  <path
     d="m 175.422,82.888 16,-9.288 15.972,9.328 -16.06,9.205 -15.912,-9.245"
     id="path3808"
     inkscape:connector-curvature="0"
     style="fill:#eae9e6" />
  <path
     d="M 175.689,64.533 191.54,55.425 V 37.078 l -15.893,9.025 0.042,18.43"
     id="path3810"
     inkscape:connector-curvature="0"
     style="fill:#61a5ce" />
  <path
     d="M 223.505,18.198 223.51,0.02 238.953,9.223 223.505,18.198"
     id="path3812"
     inkscape:connector-curvature="0"
     style="fill:#3185b8" />
  <path
     d="m 255.28,18.501 -47.886,27.602 -15.854,-9.025 -15.893,9.025 -15.64,-9.118 c 0,0 19.755,-11.762 27.81,-16.41 6.398,-3.692 19.577,-11.396 19.577,-11.396 l 16.12,9.023 15.447,-8.975 c 0,0 14.477,7.763 16.319,9.274 -4.356,2.545 0,0 0,0 M 95.744,37.028 63.769,55.334 0.03,18.455 31.915,0 95.744,37.028"
     id="path3814"
     inkscape:connector-curvature="0"
     style="fill:#eae9e6" />
  <path
     d="M 239.204,45.683 V 27.767 l -15.58,8.99 15.58,8.926 m -47.224,83.29 15.503,-8.893 v 17.837 l -15.503,-8.944"
     id="path3816"
     inkscape:connector-curvature="0"
     style="fill:#3185b8" />
  <path
     d="m 159.583,202.713 v 18.484 l 16.148,-9.341 -16.148,-9.143"
     id="path3818"
     inkscape:connector-curvature="0"
     style="fill:#eae9e6" />
  <path
     d="m 175.831,211.855 -0.199,-18.334 -16.05,9.192 16.25,9.143"
     id="path3820"
     inkscape:connector-curvature="0"
     style="fill:#3185b8" />
</svg>
